<svg width="594" height="643" viewBox="0 0 594 643" fill="none" xmlns="http://www.w3.org/2000/svg">
<path d="M284.831 28.3755C312.138 12.7049 346.978 22.1407 362.644 49.4499L593 451L309.28 613.461C281.52 629.357 246.131 619.775 230.182 592.045L-3.13322e-05 191.833L284.831 28.3755Z" fill="#157DC2"/>
<path d="M205.164 319.19C204.356 320.469 203.481 321.378 202.538 321.917C201.663 322.456 200.518 322.725 199.104 322.725C197.623 322.725 196.141 322.422 194.66 321.816C193.179 321.143 191.563 320.436 189.812 319.695C188.129 318.954 186.21 318.281 184.055 317.675C181.9 317.002 179.443 316.665 176.682 316.665C172.709 316.665 169.646 317.439 167.491 318.988C165.404 320.469 164.36 322.557 164.36 325.25C164.36 327.203 165.033 328.819 166.38 330.098C167.794 331.377 169.646 332.522 171.935 333.532C174.224 334.475 176.817 335.384 179.712 336.259C182.607 337.134 185.57 338.111 188.6 339.188C191.63 340.265 194.593 341.545 197.488 343.026C200.383 344.44 202.976 346.224 205.265 348.379C207.554 350.466 209.372 353.025 210.719 356.055C212.133 359.085 212.84 362.721 212.84 366.963C212.84 372.148 211.897 376.928 210.012 381.305C208.127 385.682 205.299 389.452 201.528 392.617C197.825 395.782 193.212 398.239 187.691 399.99C182.237 401.741 175.941 402.616 168.804 402.616C165.235 402.616 161.667 402.279 158.098 401.606C154.529 400.933 151.062 400.024 147.695 398.879C144.396 397.734 141.332 396.388 138.504 394.839C135.676 393.223 133.252 391.506 131.232 389.688L138.504 378.174C139.312 376.827 140.322 375.784 141.534 375.043C142.813 374.235 144.429 373.831 146.382 373.831C148.2 373.831 149.816 374.235 151.23 375.043C152.711 375.851 154.294 376.726 155.977 377.669C157.66 378.612 159.613 379.487 161.835 380.295C164.124 381.103 166.986 381.507 170.42 381.507C172.844 381.507 174.898 381.271 176.581 380.8C178.264 380.261 179.611 379.554 180.621 378.679C181.631 377.804 182.372 376.827 182.843 375.75C183.314 374.673 183.55 373.562 183.55 372.417C183.55 370.33 182.843 368.613 181.429 367.266C180.015 365.919 178.163 364.775 175.874 363.832C173.585 362.822 170.959 361.913 167.996 361.105C165.101 360.23 162.138 359.253 159.108 358.176C156.078 357.099 153.082 355.819 150.119 354.338C147.224 352.789 144.631 350.87 142.342 348.581C140.053 346.224 138.201 343.363 136.787 339.996C135.373 336.629 134.666 332.556 134.666 327.775C134.666 323.331 135.508 319.123 137.191 315.15C138.942 311.11 141.534 307.575 144.968 304.545C148.402 301.515 152.711 299.125 157.896 297.374C163.081 295.556 169.141 294.647 176.076 294.647C179.847 294.647 183.483 294.984 186.984 295.657C190.553 296.33 193.886 297.273 196.983 298.485C200.08 299.697 202.908 301.145 205.467 302.828C208.026 304.444 210.281 306.228 212.234 308.181L205.164 319.19ZM259.868 249.803V401H228.558V249.803H259.868ZM313.048 296.263V401H281.738V296.263H313.048ZM316.28 267.579C316.28 270.07 315.775 272.427 314.765 274.649C313.755 276.804 312.374 278.723 310.624 280.406C308.873 282.022 306.819 283.335 304.463 284.345C302.173 285.288 299.716 285.759 297.09 285.759C294.531 285.759 292.141 285.288 289.919 284.345C287.697 283.335 285.71 282.022 283.96 280.406C282.276 278.723 280.93 276.804 279.92 274.649C278.977 272.427 278.506 270.07 278.506 267.579C278.506 265.02 278.977 262.63 279.92 260.408C280.93 258.186 282.276 256.233 283.96 254.55C285.71 252.867 287.697 251.554 289.919 250.611C292.141 249.668 294.531 249.197 297.09 249.197C299.716 249.197 302.173 249.668 304.463 250.611C306.819 251.554 308.873 252.867 310.624 254.55C312.374 256.233 313.755 258.186 314.765 260.408C315.775 262.63 316.28 265.02 316.28 267.579ZM334.884 401V296.263H354.276C358.182 296.263 360.74 298.014 361.952 301.515L363.669 307.171C365.42 305.353 367.238 303.703 369.123 302.222C371.009 300.673 373.029 299.36 375.183 298.283C377.405 297.138 379.762 296.263 382.253 295.657C384.812 294.984 387.606 294.647 390.636 294.647C396.966 294.647 402.184 296.297 406.291 299.596C410.466 302.828 413.631 307.171 415.785 312.625C417.536 309.393 419.657 306.632 422.148 304.343C424.707 302.054 427.434 300.202 430.329 298.788C433.292 297.374 436.389 296.33 439.621 295.657C442.921 294.984 446.186 294.647 449.418 294.647C455.411 294.647 460.73 295.556 465.376 297.374C470.022 299.125 473.894 301.717 476.991 305.151C480.156 308.518 482.546 312.692 484.162 317.675C485.778 322.59 486.586 328.179 486.586 334.441V401H455.276V334.441C455.276 323.6 450.63 318.18 441.338 318.18C437.096 318.18 433.561 319.594 430.733 322.422C427.973 325.183 426.592 329.189 426.592 334.441V401H395.282V334.441C395.282 328.448 394.104 324.24 391.747 321.816C389.391 319.392 385.923 318.18 381.344 318.18C378.516 318.18 375.823 318.82 373.264 320.099C370.773 321.378 368.416 323.095 366.194 325.25V401H334.884Z" fill="white"/>
<path d="M479.5 374L518.5 321L523 329L486.5 401L479.5 399.5V374Z" fill="white"/>
<path d="M118.286 170.113V226H111.656V184.933C111.656 184.387 111.669 183.802 111.695 183.178C111.747 182.554 111.799 181.917 111.851 181.267L92.663 216.211C92.065 217.381 91.155 217.966 89.933 217.966H88.841C87.619 217.966 86.709 217.381 86.111 216.211L66.533 181.111C66.689 182.489 66.767 183.763 66.767 184.933V226H60.137V170.113H65.714C66.39 170.113 66.91 170.178 67.274 170.308C67.638 170.438 67.989 170.802 68.327 171.4L87.632 205.798C87.944 206.422 88.243 207.072 88.529 207.748C88.841 208.424 89.127 209.113 89.387 209.815C89.647 209.113 89.92 208.424 90.206 207.748C90.492 207.046 90.804 206.383 91.142 205.759L110.096 171.4C110.408 170.802 110.746 170.438 111.11 170.308C111.5 170.178 112.033 170.113 112.709 170.113H118.286ZM149.493 185.869C152.379 185.869 154.979 186.35 157.293 187.312C159.607 188.274 161.583 189.639 163.221 191.407C164.859 193.175 166.107 195.32 166.965 197.842C167.849 200.338 168.291 203.133 168.291 206.227C168.291 209.347 167.849 212.155 166.965 214.651C166.107 217.147 164.859 219.279 163.221 221.047C161.583 222.815 159.607 224.18 157.293 225.142C154.979 226.078 152.379 226.546 149.493 226.546C146.581 226.546 143.955 226.078 141.615 225.142C139.301 224.18 137.325 222.815 135.687 221.047C134.049 219.279 132.788 217.147 131.904 214.651C131.046 212.155 130.617 209.347 130.617 206.227C130.617 203.133 131.046 200.338 131.904 197.842C132.788 195.32 134.049 193.175 135.687 191.407C137.325 189.639 139.301 188.274 141.615 187.312C143.955 186.35 146.581 185.869 149.493 185.869ZM149.493 221.125C153.393 221.125 156.305 219.825 158.229 217.225C160.153 214.599 161.115 210.946 161.115 206.266C161.115 201.56 160.153 197.894 158.229 195.268C156.305 192.642 153.393 191.329 149.493 191.329C147.517 191.329 145.788 191.667 144.306 192.343C142.85 193.019 141.628 193.994 140.64 195.268C139.678 196.542 138.95 198.115 138.456 199.987C137.988 201.833 137.754 203.926 137.754 206.266C137.754 210.946 138.716 214.599 140.64 217.225C142.59 219.825 145.541 221.125 149.493 221.125ZM187.197 216.484C188.471 218.2 189.862 219.409 191.37 220.111C192.904 220.813 194.581 221.164 196.401 221.164C200.119 221.164 202.966 219.851 204.942 217.225C206.918 214.599 207.906 210.686 207.906 205.486C207.906 200.65 207.022 197.101 205.254 194.839C203.512 192.551 201.016 191.407 197.766 191.407C195.504 191.407 193.528 191.927 191.838 192.967C190.174 194.007 188.627 195.476 187.197 197.374V216.484ZM187.197 192.187C188.861 190.263 190.733 188.729 192.813 187.585C194.919 186.441 197.337 185.869 200.067 185.869C202.381 185.869 204.461 186.311 206.307 187.195C208.179 188.079 209.765 189.366 211.065 191.056C212.365 192.72 213.353 194.748 214.029 197.14C214.731 199.532 215.082 202.223 215.082 205.213C215.082 208.411 214.692 211.323 213.912 213.949C213.132 216.575 212.001 218.824 210.519 220.696C209.063 222.542 207.282 223.985 205.176 225.025C203.07 226.039 200.704 226.546 198.078 226.546C195.478 226.546 193.281 226.065 191.487 225.103C189.719 224.115 188.172 222.724 186.846 220.93L186.495 224.518C186.287 225.506 185.689 226 184.701 226H180.216V168.553H187.197V192.187ZM234.314 186.493V226H227.372V186.493H234.314ZM235.796 174.091C235.796 174.767 235.653 175.404 235.367 176.002C235.107 176.574 234.743 177.094 234.275 177.562C233.833 178.004 233.3 178.355 232.676 178.615C232.078 178.875 231.441 179.005 230.765 179.005C230.089 179.005 229.452 178.875 228.854 178.615C228.282 178.355 227.775 178.004 227.333 177.562C226.891 177.094 226.54 176.574 226.28 176.002C226.02 175.404 225.89 174.767 225.89 174.091C225.89 173.415 226.02 172.778 226.28 172.18C226.54 171.556 226.891 171.023 227.333 170.581C227.775 170.113 228.282 169.749 228.854 169.489C229.452 169.229 230.089 169.099 230.765 169.099C231.441 169.099 232.078 169.229 232.676 169.489C233.3 169.749 233.833 170.113 234.275 170.581C234.743 171.023 235.107 171.556 235.367 172.18C235.653 172.778 235.796 173.415 235.796 174.091ZM256.016 168.553V226H249.074V168.553H256.016ZM296.836 201.937C296.836 200.325 296.602 198.856 296.134 197.53C295.692 196.178 295.029 195.021 294.145 194.059C293.287 193.071 292.234 192.317 290.986 191.797C289.738 191.251 288.321 190.978 286.735 190.978C283.407 190.978 280.768 191.953 278.818 193.903C276.894 195.827 275.698 198.505 275.23 201.937H296.836ZM302.452 220.462C301.594 221.502 300.567 222.412 299.371 223.192C298.175 223.946 296.888 224.57 295.51 225.064C294.158 225.558 292.754 225.922 291.298 226.156C289.842 226.416 288.399 226.546 286.969 226.546C284.239 226.546 281.717 226.091 279.403 225.181C277.115 224.245 275.126 222.893 273.436 221.125C271.772 219.331 270.472 217.121 269.536 214.495C268.6 211.869 268.132 208.853 268.132 205.447C268.132 202.691 268.548 200.117 269.38 197.725C270.238 195.333 271.46 193.266 273.046 191.524C274.632 189.756 276.569 188.378 278.857 187.39C281.145 186.376 283.719 185.869 286.579 185.869C288.945 185.869 291.129 186.272 293.131 187.078C295.159 187.858 296.901 189.002 298.357 190.51C299.839 191.992 300.996 193.838 301.828 196.048C302.66 198.232 303.076 200.728 303.076 203.536C303.076 204.628 302.959 205.356 302.725 205.72C302.491 206.084 302.049 206.266 301.399 206.266H274.996C275.074 208.762 275.412 210.933 276.01 212.779C276.634 214.625 277.492 216.172 278.584 217.42C279.676 218.642 280.976 219.565 282.484 220.189C283.992 220.787 285.682 221.086 287.554 221.086C289.296 221.086 290.791 220.891 292.039 220.501C293.313 220.085 294.405 219.643 295.315 219.175C296.225 218.707 296.979 218.278 297.577 217.888C298.201 217.472 298.734 217.264 299.176 217.264C299.748 217.264 300.19 217.485 300.502 217.927L302.452 220.462Z" fill="white"/>
</svg>
